<svg id="graph" viewBox="0 0 640 230" xmlns="http://www.w3.org/2000/svg">
  <defs>
    <marker id="arr" viewBox="0 0 10 10" refX="10" refY="5" markerWidth="6" markerHeight="6"
      orient="auto-start-reverse">
      <path d="M0 1.5L10 5L0 8.5z" fill="#3a4a6b" />
    </marker>
    <marker id="arr-a" viewBox="0 0 10 10" refX="10" refY="5" markerWidth="6" markerHeight="6"
      orient="auto-start-reverse">
      <path d="M0 1.5L10 5L0 8.5z" fill="#00e676" />
    </marker>
  </defs>
  <!-- q0(60,115) q1(185,115) q2(310,115) q3(490,50) q4(490,180) r=18 -->

  <!-- q0→q1 -->
  <line x1="78" y1="115" x2="167" y2="115" class="edge-line" id="edge-q0-q1" marker-end="url(#arr)" />
  <rect x="100" y="97" width="45" height="13" rx="2" class="lbl-bg" />
  <text x="122" y="107" class="edge-label" text-anchor="middle" id="elabel-q0-q1">
    #/0, _
  </text>

  <!-- q1→q2 -->
  <line x1="203" y1="115" x2="292" y2="115" class="edge-line" id="edge-q1-q2" marker-end="url(#arr)" />
  <rect x="225" y="97" width="45" height="13" rx="2" class="lbl-bg" />
  <text x="247" y="107" class="edge-label" text-anchor="middle" id="elabel-q1-q2">
    0/1, _
  </text>

  <!-- q2→q3 -->
  <path d="M325 102 Q400 30 473 47" class="edge-line" id="edge-q2-q3" marker-end="url(#arr)" />
  <rect x="370" y="38" width="42" height="13" rx="2" class="lbl-bg" />
  <text x="391" y="48" class="edge-label" text-anchor="middle" id="elabel-q2-q3">
    1/0, I
  </text>

  <!-- q2→q4 -->
  <path d="M325 129 Q400 100 473 183" class="edge-line" id="edge-q2-q4" marker-end="url(#arr)" />
  <rect x="399" y="119" width="42" height="13" rx="2" class="lbl-bg" />
  <text x="420" y="124" class="edge-label" text-anchor="middle" id="elabel-q2-q4">
    0/1, _
  </text>

  <!-- q3→q4 -->
  <line x1="490" y1="68" x2="490" y2="162" class="edge-line" id="edge-q3-q4" marker-end="url(#arr)" />
  <rect x="496" y="108" width="55" height="13" rx="2" class="lbl-bg" />
  <text x="523" y="118" class="edge-label" text-anchor="middle" id="elabel-q3-q4">
    0,#/1, _
  </text>

  <!-- q4→q2 -->
  <path d="M473 192 Q385 225 322 130" class="edge-line" id="edge-q4-q2" marker-end="url(#arr)" />
  <rect x="370" y="207" width="42" height="13" rx="2" class="lbl-bg" />
  <text x="391" y="217" class="edge-label" text-anchor="middle" id="elabel-q4-q2">
    #/#, I
  </text>

  <!-- Self q3→q3 (right side) -->
  <path d="M505 40 C545 25 545 75 505 60" class="edge-line self-loop" id="edge-q3-q3" marker-end="url(#arr)" />
  <rect x="547" y="39" width="42" height="13" rx="2" class="lbl-bg" />
  <text x="568" y="49" class="edge-label self-loop-label" text-anchor="middle" id="elabel-q3-q3">
    1/0, I
  </text>

  <!-- Self q4→q4 (right side) -->
  <path d="M505 170 C545 155 545 205 505 190" class="edge-line self-loop" id="edge-q4-q4" marker-end="url(#arr)" />
  <rect x="547" y="172" width="50" height="13" rx="2" class="lbl-bg" />
  <text x="572" y="182" class="edge-label self-loop-label" text-anchor="middle" id="elabel-q4-q4">
    0,1/_, D
  </text>

  <!-- Entry arrow -->
  <line x1="15" y1="115" x2="42" y2="115" stroke="#636e84" stroke-width="2" marker-end="url(#arr)" />
  <!-- Nodes -->
  <circle cx="60" cy="115" r="18" class="node-circle" id="node-q0" />
  <text x="60" y="115" class="node-label">q0</text>
  <circle cx="185" cy="115" r="18" class="node-circle" id="node-q1" />
  <text x="185" y="115" class="node-label">q1</text>
  <circle cx="310" cy="115" r="18" class="node-circle" id="node-q2" />
  <text x="310" y="115" class="node-label">q2</text>
  <circle cx="490" cy="50" r="18" class="node-circle" id="node-q3" />
  <text x="490" y="50" class="node-label">q3</text>
  <circle cx="490" cy="180" r="18" class="node-circle" id="node-q4" />
  <text x="490" y="180" class="node-label">q4</text>
</svg>